<svg width="25" height="25" viewBox="0 0 25 25" fill="none" xmlns="http://www.w3.org/2000/svg">
<path d="M24.255 14.0626H13.3502L20.6126 21.779C20.8901 22.0739 21.3469 22.0978 21.6323 21.8122C23.4108 20.0319 24.6342 17.632 24.9931 14.9342C25.0547 14.4723 24.6939 14.0626 24.255 14.0626ZM23.5276 10.8986C23.1489 5.06558 18.7619 0.404445 13.272 0.00210132C12.8529 -0.0286604 12.5 0.346828 12.5 0.793117V11.7189H22.7835C23.2036 11.7189 23.5565 11.3439 23.5276 10.8986ZM10.2941 14.0626V2.47622C10.2941 2.00991 9.90853 1.62661 9.47424 1.69204C3.99768 2.51431 -0.188441 7.5978 0.00641219 13.6901C0.20678 19.9469 5.27709 25.0778 11.1686 24.9992C13.4848 24.9684 15.625 24.1754 17.3846 22.8493C17.7477 22.5758 17.7716 22.008 17.4568 21.6735L10.2941 14.0626Z" fill="#046E60"/>
</svg>
